<svg xmlns="http://www.w3.org/2000/svg" viewBox="110 110 180 180">
  <style>
    .symbol { fill: #040404; }
    @media (prefers-color-scheme: dark) {
      .symbol { fill: #fcfcfc; }
    }
  </style>
  <path class="symbol" d="M144.000 175.167 L 144.000 187.500 131.583 187.500 L 119.167 187.500 119.167 200.000 L 119.167 212.500 131.583 212.500 L 144.000 212.500 144.000 224.833 L 144.000 237.167 156.417 237.167 L 168.833 237.167 168.833 224.833 L 168.833 212.500 181.250 212.500 L 193.667 212.500 193.667 200.000 L 193.667 187.500 181.250 187.500 L 168.833 187.500 168.833 175.167 L 168.833 162.833 156.417 162.833 L 144.000 162.833 144.000 175.167" fill-rule="evenodd"/>
  <path fill="#64fc14" d="M206.333 170.250 L 206.333 177.667 243.583 177.667 L 280.833 177.667 280.833 170.250 L 280.833 162.833 243.583 162.833 L 206.333 162.833 206.333 170.250 M206.333 199.917 L 206.333 207.333 243.583 207.333 L 280.833 207.333 280.833 199.917 L 280.833 192.500 243.583 192.500 L 206.333 192.500 206.333 199.917 M206.333 229.750 L 206.333 237.167 243.583 237.167 L 280.833 237.167 280.833 229.750 L 280.833 222.333 243.583 222.333 L 206.333 222.333 206.333 229.750" fill-rule="evenodd"/>
</svg>
